<?xml version="1.0" encoding="utf-8"?>
<!-- Generator: Adobe Illustrator 19.0.0, SVG Export Plug-In . SVG Version: 6.00 Build 0)  -->
<svg version="1.1" id="Capa_1" xmlns="http://www.w3.org/2000/svg" xmlns:xlink="http://www.w3.org/1999/xlink" x="0px" y="0px"
	 viewBox="-284 485.2 41.3 38.8" style="enable-background:new -284 485.2 41.3 38.8;" xml:space="preserve">
<style type="text/css">
	.st0{fill:#4D4D4F;}
</style>
<g>
	<path class="st0" d="M-246.8,506.4v10.9c0,1.2-1,2.2-2.2,2.2h-8.7c-1.2,0-2.2-1-2.2-2.2v-6.6c0-1.6-1.3-2.9-2.9-2.9
		c-1.6,0-2.9,1.3-2.9,2.9v6.6c0,1.2-1,2.2-2.2,2.2h-8.7c-1.2,0-2.2-1-2.2-2.2v-10.9c0-1,0.4-1.9,1.1-2.6l13.5-13.5
		c0.4-0.4,0.9-0.6,1.5-0.6c0.5,0,1.1,0.2,1.4,0.6l13.5,13.5C-247.2,504.5-246.8,505.5-246.8,506.4z"/>
</g>
</svg>
