<?xml version="1.0" encoding="utf-8"?>
<!-- Generator: Adobe Illustrator 19.0.0, SVG Export Plug-In . SVG Version: 6.00 Build 0)  -->
<svg version="1.1" id="Capa_1" xmlns="http://www.w3.org/2000/svg" xmlns:xlink="http://www.w3.org/1999/xlink" x="0px" y="0px"
	 viewBox="-284 485.2 41.3 38.8" style="enable-background:new -284 485.2 41.3 38.8;" xml:space="preserve">
<style type="text/css">
	.st0{fill:#FFFFFF;}
</style>
<g>
	<path class="st0" d="M-248.6,507.1c-2,3.8-10.6,10.4-13.7,12.7c-0.3,0.2-0.7,0.4-1.1,0.4c-0.4,0-0.8-0.1-1.1-0.4
		c-3.1-2.3-11.6-8.9-13.7-12.7c-2.5-4.6-1-10.6,3.3-13.3c1.4-0.9,3-1.3,4.5-1.3c2.7,0,5.3,1.3,7,3.6c1.7-2.3,4.3-3.6,7-3.6
		c1.5,0,3.1,0.4,4.5,1.3C-247.5,496.5-246.1,502.4-248.6,507.1z"/>
</g>
</svg>
