<?xml version="1.0" encoding="utf-8"?>
<!-- Generator: Adobe Illustrator 19.0.0, SVG Export Plug-In . SVG Version: 6.00 Build 0)  -->
<svg version="1.1" id="Capa_1" xmlns="http://www.w3.org/2000/svg" xmlns:xlink="http://www.w3.org/1999/xlink" x="0px" y="0px"
	 viewBox="0 0 41.3 38.8" style="enable-background:new 0 0 41.3 38.8;" xml:space="preserve">
<style type="text/css">
	.st0{fill:#58595B;}
	.st1{fill:#FFFFFF;}
</style>
<g id="XMLID_29_">
	<path id="XMLID_159_" class="st0" d="M4.8,19.5c0-8.8,7.1-15.9,16-15.9c8.8,0,15.9,7.2,15.9,16c0,8.8-7.2,15.9-16,15.9
		C11.9,35.4,4.8,28.3,4.8,19.5z M20.7,5.8C13.2,5.8,7.1,12,7.1,19.5c0,7.5,6.2,13.7,13.7,13.7c7.5,0,13.7-6.2,13.7-13.7
		C34.4,11.9,28.2,5.8,20.7,5.8z"/>
	<path id="XMLID_156_" class="st1" d="M20.7,5.8c7.5,0,13.7,6.1,13.7,13.7c0,7.5-6.1,13.7-13.7,13.7c-7.5,0-13.7-6.1-13.7-13.7
		C7.1,12,13.2,5.8,20.7,5.8z M29.6,10.6c-0.4,0.1-0.6,0.2-0.9,0.3c-3.1,1.2-6.2,2.4-9.2,4c-1.5,0.8-2.6,1.8-3.3,3.3
		c-1.6,3.2-2.9,6.5-4.2,9.8c0,0.1,0,0.1-0.1,0.3c0.2-0.1,0.3-0.1,0.5-0.2c3.2-1.2,6.4-2.5,9.5-4c1.6-0.8,2.7-1.9,3.5-3.5
		c1.2-2.4,2.2-4.8,3.2-7.3C28.9,12.5,29.2,11.6,29.6,10.6z"/>
	<path id="XMLID_153_" class="st0" d="M29.6,10.6c-0.4,1-0.7,1.9-1,2.7c-1,2.5-2,4.9-3.2,7.3c-0.8,1.6-1.9,2.7-3.5,3.5
		c-3.1,1.6-6.3,2.8-9.5,4c-0.1,0.1-0.3,0.1-0.5,0.2c0-0.1,0.1-0.2,0.1-0.3c1.2-3.3,2.6-6.6,4.2-9.8c0.8-1.5,1.8-2.6,3.3-3.3
		c3-1.5,6.1-2.8,9.2-4C29,10.8,29.2,10.8,29.6,10.6z M15.2,25c0.1,0,0.1,0,0.2,0c2-0.8,4-1.7,5.9-2.8c0.3-0.2,0.6-0.4,0.9-0.7
		c0.2-0.2,0.2-0.4,0-0.6c-1-1-2-2-3-3c-0.2-0.2-0.4-0.2-0.6,0c-0.3,0.4-0.6,0.8-0.9,1.3c-0.9,1.9-1.7,3.7-2.6,5.6
		C15.2,24.9,15.2,25,15.2,25z"/>
	<path id="XMLID_152_" class="st1" d="M15.2,25c0-0.1,0-0.1,0-0.2c0.9-1.9,1.7-3.7,2.6-5.6c0.2-0.5,0.6-0.8,0.9-1.3
		c0.2-0.2,0.4-0.2,0.6,0c1,1,2,2,3,3c0.2,0.2,0.2,0.4,0,0.6c-0.3,0.2-0.6,0.5-0.9,0.7c-1.9,1.1-3.9,1.9-5.9,2.8
		C15.3,25,15.2,25,15.2,25z"/>
</g>
</svg>
