<?xml version="1.0" encoding="utf-8"?>
<!-- Generator: Adobe Illustrator 19.0.0, SVG Export Plug-In . SVG Version: 6.00 Build 0)  -->
<svg version="1.1" id="Capa_2" xmlns="http://www.w3.org/2000/svg" xmlns:xlink="http://www.w3.org/1999/xlink" x="0px" y="0px"
	 viewBox="0 0 41.3 38.8" style="enable-background:new 0 0 41.3 38.8;" xml:space="preserve">
<style type="text/css">
	.st0{fill:#4E4E50;}
	.st1{fill-rule:evenodd;clip-rule:evenodd;fill:#4E4E50;}
</style>
<g id="XMLID_29_">
	<path id="XMLID_54_" class="st0" d="M20.6,5.9c0.3,0,0.6,0.1,0.8,0.3l0,0l0,0l2.2,2c0.8,0.8,1.9,1.2,3,1.2h6.6
		c0.8,0,1.5,0.7,1.5,1.5v20.4c0,0.8-0.7,1.5-1.5,1.5H8c-0.8,0-1.5-0.7-1.5-1.5V11c0-0.8,0.7-1.5,1.5-1.5h6.6c1.1,0,2.2-0.4,3-1.2
		l2.2-2l0,0l0,0C20.1,6,20.3,5.9,20.6,5.9 M20.6,4.5c-0.6,0-1.3,0.2-1.8,0.7l-2.2,2c-0.5,0.5-1.3,0.8-2.1,0.8H8c-1.6,0-3,1.3-3,2.9
		v20.4c0,1.6,1.3,2.9,3,2.9h25.3c1.6,0,3-1.3,3-2.9V11c0-1.6-1.3-2.9-3-2.9h-6.6c-0.8,0-1.5-0.3-2.1-0.8l-2.2-2
		C21.9,4.7,21.3,4.5,20.6,4.5L20.6,4.5z"/>
	<path id="XMLID_36_" class="st1" d="M20.6,14.4c-2,0-3.6,1.6-3.6,3.5c0,2,1.6,3.5,3.6,3.5c2,0,3.6-1.6,3.6-3.5
		C24.2,16,22.6,14.4,20.6,14.4z M20.6,20.1c-1.2,0-2.1-1-2.1-2.1s1-2.1,2.1-2.1c1.2,0,2.1,1,2.1,2.1S21.8,20.1,20.6,20.1z"/>
	<path id="XMLID_35_" class="st1" d="M24.7,23h-8.1c-1.3,0-2.3,1-2.3,2.2v2.1h1.4v-2.1c0-0.4,0.3-0.7,0.7-0.7h8.5
		c0.4,0,0.7,0.3,0.7,0.7v2.1H27v-2.1C27,24,26,23,24.7,23z"/>
</g>
</svg>
