<?xml version="1.0" encoding="utf-8"?>
<!-- Generator: Adobe Illustrator 19.0.0, SVG Export Plug-In . SVG Version: 6.00 Build 0)  -->
<svg version="1.1" id="Capa_2" xmlns="http://www.w3.org/2000/svg" xmlns:xlink="http://www.w3.org/1999/xlink" x="0px" y="0px"
	 viewBox="0 0 41.3 38.8" style="enable-background:new 0 0 41.3 38.8;" xml:space="preserve">
<style type="text/css">
	.st0{fill:#4E4E50;}
</style>
<path id="XMLID_29_" class="st0" d="M31.4,4.2H9.9c-1.5,0-2.7,1.2-2.7,2.7v25.7c0,0.8,0.4,1.5,1.1,1.8c0.3,0.1,0.6,0.2,0.8,0.2
	c0.5,0,0.9-0.2,1.3-0.5l10.2-8.7l10.2,8.7c0,0,0,0,0,0c0.6,0.5,1.4,0.6,2.1,0.3c0.7-0.3,1.1-1,1.1-1.8V6.9
	C34.1,5.4,32.9,4.2,31.4,4.2z M32.5,32.6c0,0.2-0.2,0.3-0.2,0.3c-0.1,0-0.2,0.1-0.4-0.1v0l-10.7-9.2c-0.3-0.3-0.7-0.3-1,0L9.4,32.9
	C9.3,33.1,9.1,33,9,33c-0.1,0-0.2-0.1-0.2-0.3V6.9c0-0.6,0.5-1.1,1.1-1.1h21.5c0.6,0,1.1,0.5,1.1,1.1V32.6z"/>
</svg>
