<?xml version="1.0" encoding="utf-8"?>
<!-- Generator: Adobe Illustrator 19.0.0, SVG Export Plug-In . SVG Version: 6.00 Build 0)  -->
<svg version="1.1" id="Capa_2" xmlns="http://www.w3.org/2000/svg" xmlns:xlink="http://www.w3.org/1999/xlink" x="0px" y="0px"
	 viewBox="0 0 41.3 38.8" style="enable-background:new 0 0 41.3 38.8;" xml:space="preserve">
<style type="text/css">
	.st0{fill:#58595B;}
</style>
<g id="XMLID_35_">
	<path id="XMLID_148_" class="st0" d="M21.2,36.2c-0.3,0-0.6,0-0.9,0c-0.2-0.1-0.3-0.2-0.4-0.4c-0.3-1-0.6-1.9-1-2.9
		c-0.1-0.2-0.2-0.4-0.5-0.4c-0.5-0.1-1-0.2-1.5-0.3c-0.3-0.1-0.5,0-0.7,0.2c-0.7,0.7-1.4,1.4-2.1,2.1c-0.3,0.3-0.4,0.3-0.8,0.1
		c-0.7-0.4-1.5-0.8-2.2-1.2c-0.2-0.1-0.3-0.3-0.2-0.6c0.3-1,0.5-2,0.8-3c0.1-0.2,0-0.4-0.1-0.6c-0.4-0.4-0.8-0.8-1.2-1.2
		c-0.2-0.2-0.3-0.2-0.6-0.2c-1,0.2-2,0.5-3,0.7c-0.3,0.1-0.4,0-0.6-0.3c-0.4-0.8-0.8-1.6-1.2-2.4C5,25.6,5,25.4,5.3,25.2
		c0.8-0.7,1.5-1.4,2.3-2.1c0.2-0.2,0.3-0.4,0.2-0.7c-0.1-0.5-0.2-1-0.3-1.5c0-0.2-0.2-0.4-0.4-0.5c-1.1-0.4-2.2-0.8-3.3-1.2
		c0-0.2,0-0.3,0-0.5c0-0.3,0.1-0.5,0.1-0.8C4,17.4,4,16.8,4.1,16.1c0-0.2,0.2-0.3,0.4-0.4c1-0.2,2.1-0.4,3.1-0.6
		c0.3,0,0.4-0.2,0.5-0.4c0.1-0.4,0.3-0.7,0.5-1.1c0.1-0.3,0.1-0.5-0.1-0.8c-0.6-0.8-1.2-1.6-1.8-2.4c-0.2-0.2-0.2-0.4,0-0.6
		c0.6-0.7,1.2-1.4,1.8-2.2c0.2-0.3,0.4-0.3,0.7-0.2c1,0.4,1.9,0.8,2.9,1.2c0.3,0.1,0.5,0.1,0.7-0.1c0.2-0.2,0.4-0.3,0.6-0.4
		c0.4-0.2,0.5-0.5,0.5-1c-0.1-0.9-0.2-1.9-0.2-2.8c0-0.3,0.1-0.4,0.4-0.5c0.9-0.3,1.8-0.6,2.7-0.9c0.4-0.1,0.5-0.1,0.7,0.2
		C18,4,18.6,4.9,19.2,5.7C19.3,5.9,19.5,6,19.7,6c0.3,0,0.6,0,0.9,0c0.3,0,0.4-0.1,0.5-0.3c0.5-0.9,0.9-1.8,1.4-2.7
		c0.1-0.2,0.2-0.3,0.4-0.4c0.1,0,0.1,0,0.2,0c0,0,0.1,0,0.1,0c1,0.2,1.9,0.5,2.9,0.7c0.4,0.1,0.4,0.2,0.5,0.6c0,0.6,0,1.2,0.1,1.7
		c0,0.4,0,0.9,0,1.3c0,0.3,0.1,0.5,0.4,0.6c0.2,0.1,0.4,0.2,0.6,0.3c0.2,0.2,0.5,0.1,0.7,0c0.9-0.5,1.8-1,2.7-1.5
		c0.3-0.2,0.4-0.2,0.7,0.1c0.7,0.7,1.4,1.4,2,2.1C34,8.9,34.1,9,33.8,9.4c-0.5,0.9-1,1.7-1.6,2.6c-0.1,0.2-0.1,0.4,0,0.6
		c0.1,0.3,0.3,0.5,0.4,0.8c0.1,0.2,0.3,0.3,0.5,0.3c0.6,0,1.2,0.1,1.8,0.1c0.5,0,1,0.1,1.5,0.1c0.3,0,0.4,0.2,0.4,0.4
		c0.1,0.5,0.2,1,0.3,1.6c0.1,0.5,0.2,1,0.3,1.4c0,0.1,0,0.1,0,0.2c-0.1,0.1-0.3,0.3-0.4,0.3c-0.9,0.5-1.8,0.9-2.7,1.3
		c-0.2,0.1-0.3,0.3-0.4,0.5c0,0.3,0,0.6-0.1,0.9c0,0.3,0.1,0.6,0.4,0.7c0.8,0.6,1.6,1.2,2.4,1.8c0.3,0.2,0.3,0.4,0.2,0.7
		c-0.3,0.9-0.7,1.8-1,2.7c-0.1,0.3-0.2,0.3-0.5,0.3c-1-0.1-2.1-0.2-3.1-0.3c-0.3,0-0.5,0.1-0.6,0.3c-0.2,0.3-0.5,0.6-0.7,0.9
		c-0.2,0.2-0.2,0.4-0.1,0.7c0.4,1,0.7,1.9,1.1,2.9c0.1,0.4,0.1,0.5-0.2,0.7c-0.7,0.5-1.4,1.1-2.1,1.6c-0.3,0.2-0.4,0.2-0.7,0
		c-0.8-0.6-1.6-1.3-2.4-1.9c-0.2-0.2-0.4-0.2-0.6-0.1c-0.4,0.2-0.9,0.3-1.3,0.5c-0.3,0.1-0.4,0.3-0.4,0.5c-0.2,1-0.4,2.1-0.6,3.1
		c0,0.2-0.2,0.4-0.4,0.4c-0.4,0.1-0.9,0.1-1.3,0.1C21.7,36.2,21.5,36.2,21.2,36.2z M10.8,19.4c0,5.3,4.2,9.6,9.4,9.9
		c5.7,0.2,10.3-4.3,10.3-9.9c0-5.3-4.2-9.6-9.4-9.9C15.4,9.3,10.8,13.9,10.8,19.4z"/>
</g>
</svg>
