<?xml version="1.0" encoding="utf-8"?>
<!-- Generator: Adobe Illustrator 19.0.0, SVG Export Plug-In . SVG Version: 6.00 Build 0)  -->
<svg version="1.1" id="Capa_2" xmlns="http://www.w3.org/2000/svg" xmlns:xlink="http://www.w3.org/1999/xlink" x="0px" y="0px"
	 viewBox="0 0 41.3 38.8" style="enable-background:new 0 0 41.3 38.8;" xml:space="preserve">
<style type="text/css">
	.st0{fill:#58595B;}
	.st1{fill:#FFFFFF;}
</style>
<g id="XMLID_29_">
	<path id="XMLID_150_" class="st0" d="M22.3,9.5c1.3,0,2.5,0,3.7,0c2.6,0.1,4.6,1.2,6.1,3.4c0.8,1.2,1.1,2.4,1.1,3.8
		c0,3.5,0,7.1,0,10.6c0,3.7-2.7,6.7-6.4,7.2c-0.3,0-0.7,0.1-1,0.1c-3.4,0-6.9,0-10.3,0c-3.7,0-6.7-2.5-7.3-6.1
		c-0.1-0.4-0.1-0.7-0.1-1.1c0-3.5,0-7.1,0-10.6c0-3.6,2.6-6.7,6.2-7.2c0.9-0.1,1.9-0.1,2.8-0.1c0.6,0,1.2,0,1.8,0
		c-0.1-0.1-0.2-0.2-0.3-0.3c-0.8-0.8-1.6-1.6-2.4-2.4C16,6.4,15.9,6,16.2,5.7c0.3-0.3,0.7-0.2,1.1,0.1c1,1,2.1,2.1,3.1,3.1
		c0.1,0.1,0.2,0.2,0.3,0.3C20.8,9.1,20.9,9,21,8.9c1-1,2.1-2.1,3.1-3.1c0.2-0.2,0.5-0.4,0.8-0.2c0.5,0.2,0.5,0.7,0.1,1.1
		c-0.8,0.8-1.6,1.6-2.4,2.4C22.5,9.2,22.5,9.3,22.3,9.5z M9.5,22.1C9.5,22.1,9.5,22.1,9.5,22.1c0,1.7,0,3.4,0,5c0,0.4,0,0.8,0.1,1.2
		c0.6,3,2.9,5,6,5c3.4,0,6.8,0,10.3,0c0.5,0,1-0.1,1.5-0.2c2.8-0.7,4.6-3,4.6-5.9c0-3.4,0-6.8,0-10.3c0-0.3,0-0.7-0.1-1
		c-0.5-3-2.9-5.1-6-5.1c-3.5,0-6.9,0-10.4,0c-0.4,0-0.8,0-1.2,0.1c-2.5,0.4-4.7,2.7-4.8,5.3C9.4,18.2,9.5,20.1,9.5,22.1z"/>
	<path id="XMLID_147_" class="st1" d="M9.5,22.1c0-1.9-0.1-3.9,0-5.8c0.1-2.6,2.2-4.9,4.8-5.3c0.4-0.1,0.8-0.1,1.2-0.1
		c3.5,0,6.9,0,10.4,0c3.1,0,5.5,2,6,5.1c0.1,0.3,0.1,0.7,0.1,1c0,3.4,0,6.8,0,10.3c0,2.9-1.8,5.2-4.6,5.9c-0.5,0.1-1,0.2-1.5,0.2
		c-3.4,0-6.8,0-10.3,0c-3.1,0-5.4-2-6-5c-0.1-0.4-0.1-0.8-0.1-1.2C9.4,25.4,9.5,23.7,9.5,22.1C9.5,22.1,9.5,22.1,9.5,22.1z
		 M21.3,23.2c0-1,0-1.9,0-2.9c0-0.8-0.3-1-1-0.8c-2.5,0.6-5,1.3-7.6,1.9c-0.5,0.1-0.7,0.4-0.6,0.8c0.1,0.4,0.4,0.6,0.9,0.5
		c1.2-0.3,2.4-0.6,3.5-0.9c1.1-0.3,2.3-0.6,3.4-0.9c0,0.2,0,0.3,0,0.4c0,0.9,0,1.7,0,2.6c0,0.6,0.3,0.9,0.9,0.7
		c2.6-0.6,5.2-1.3,7.7-1.9c0.5-0.1,0.7-0.4,0.6-0.8c-0.1-0.4-0.4-0.6-0.9-0.5c-1.6,0.4-3.3,0.8-4.9,1.2C22.7,22.8,22,23,21.3,23.2z"
		/>
	<path id="XMLID_146_" class="st0" d="M21.3,23.2c0.7-0.2,1.4-0.3,2-0.5c1.6-0.4,3.3-0.8,4.9-1.2c0.5-0.1,0.8,0.1,0.9,0.5
		c0.1,0.4-0.1,0.7-0.6,0.8c-2.6,0.7-5.1,1.3-7.7,1.9c-0.6,0.1-0.9-0.1-0.9-0.7c0-0.9,0-1.7,0-2.6c0-0.1,0-0.2,0-0.4
		c-1.2,0.3-2.3,0.6-3.4,0.9c-1.2,0.3-2.4,0.6-3.5,0.9c-0.5,0.1-0.8,0-0.9-0.5c-0.1-0.4,0.1-0.7,0.6-0.8c2.5-0.6,5-1.3,7.6-1.9
		c0.7-0.2,1,0.1,1,0.8C21.3,21.3,21.3,22.2,21.3,23.2z"/>
</g>
</svg>
