<?xml version="1.0" encoding="utf-8"?>
<!-- Generator: Adobe Illustrator 19.0.0, SVG Export Plug-In . SVG Version: 6.00 Build 0)  -->
<svg version="1.1" id="Capa_1" xmlns="http://www.w3.org/2000/svg" xmlns:xlink="http://www.w3.org/1999/xlink" x="0px" y="0px"
	 viewBox="0 0 156 62.8" style="enable-background:new 0 0 156 62.8;" xml:space="preserve">
<style type="text/css">
	.st0{fill-rule:evenodd;clip-rule:evenodd;fill:#4E4E50;}
</style>
<g id="XMLID_3_">
	<g id="XMLID_61_">
		<path id="XMLID_64_" class="st0" d="M24.3,17.8c0.3-0.1,0.7,0,1.1,0c0.5,0.1,1.1,0.3,1.5,0.6c0.2,0.2,0.4,0.4,0.4,0.7
			c0,5,0,9.9,0,14.9c0,1.6,0.1,3.3-0.2,4.9c-0.2,1.3-0.7,2.6-1.7,3.6c-0.3,0.3-0.7,0.7-1.1,0.9c-0.3,0.2-0.7,0.3-1.1,0.3
			c-0.1-0.1-0.2-0.2-0.2-0.4c0-0.4,0.2-0.8,0.3-1.1c0.4-1.2,0.5-2.5,0.5-3.8c0-6,0-12.1,0.1-18.1c0-0.2,0-0.3,0-0.5
			c-0.2,0-0.4,0.2-0.5,0.3c-0.7,0.7-1.3,1.5-1.8,2.5c-0.6,1.2-0.8,2.5-1,3.8c-0.1,0.8,0,1.7,0.2,2.5c0.2,0.6,0.4,1.3,0.8,1.8
			c0.2,0.2,0.2,0.5,0.1,0.8c-0.2,0.2-0.6,0.1-0.8,0c-0.9-0.3-1.6-0.9-2.2-1.6c-0.7-0.9-1-2-1-3.1c0.1-1,0.3-1.9,0.7-2.8
			c0.5-1.3,1.3-2.6,2.2-3.6c0.6-0.7,1.3-1.2,2.1-1.8C23.2,18.2,23.7,17.9,24.3,17.8L24.3,17.8z M57,18c0.3-0.2,0.7-0.2,1-0.2
			c0.6,0.1,1.2,0.3,1.8,0.5c0.2,0.1,0.3,0.2,0.5,0.3c-0.1,1.3-0.1,2.7-0.2,4.1c1.4,0.1,2.7,0.1,4.1,0.2c0.2,0,0.6,0.1,0.6,0.4
			c0.1,0.4,0,0.9-0.2,1.2c-0.1,0.2-0.3,0.4-0.5,0.4c-1.3,0-2.6,0.1-4,0.1c-0.1,1.9-0.1,3.8-0.2,5.7c0,1.7-0.2,3.5,0,5.2
			c0.1,0.7,0.2,1.4,0.5,2c0.1,0.3,0.4,0.5,0.7,0.5c0.4,0,0.8-0.1,1.1-0.4c0.5-0.4,0.8-0.9,1.1-1.5c0.3-0.6,0.6-1.3,0.8-2
			c0.1-0.3,0-0.6,0-0.9c0-1.6,0.3-3.2,0.8-4.7c0.4-1.1,1-2.2,1.9-2.9c1-0.8,2.5-1.1,3.7-0.6c0.8,0.3,1.4,0.9,1.8,1.7
			c0.1-0.3,0-0.7,0.1-1.1c0.2-0.4,0.7-0.4,1.1-0.3c0.5,0.1,1,0.2,1.4,0.4c0.3,0.2,0.5,0.4,0.5,0.7c-0.1,2.9-0.2,5.8-0.1,8.7
			c0,0.6,0.1,1.3,0.3,1.9c0.1,0.4,0.3,0.9,0.6,1.2c0.3,0.3,0.8,0.2,1.2-0.1c0.5-0.4,0.8-1,1.1-1.6c0.1-0.2,0.2-0.3,0.1-0.5
			c-0.2-1.7-0.2-3.5,0-5.2c0.2-1.2,0.5-2.3,1.1-3.3c0.6-1,1.5-1.9,2.6-2.5c0.2-0.1,0.4-0.2,0.7-0.2c1.1,0,2.2,0.4,3,1.1
			c0.2,0.2,0.4,0.5,0.5,0.7c0.1-0.3,0-0.7,0.1-1c0.2-0.4,0.6-0.4,1-0.3c0.6,0.1,1.2,0.2,1.7,0.5c0.3,0.2,0.3,0.6,0.3,0.9
			c0,3.3-0.1,6.5-0.1,9.8c0.7-1,1.4-2.1,2-3.3c0.7-1.4,1.3-2.8,1.6-4.4c-0.4-0.4-0.8-0.8-0.9-1.4c-0.1-0.4,0-0.9,0.1-1.3
			c0.2-0.6,0.7-1.2,1.3-1.4c0.5-0.1,1.1-0.2,1.6,0.1c0.4,0.2,0.6,0.6,0.6,1c0.1,0.4,0,0.8-0.1,1.2c0.9-0.1,1.7-0.3,2.6-0.5
			c0.6-0.1,1.2-0.2,1.8-0.1c0.4,0.1,0.7,0.5,0.8,0.9c0.1,0.4,0.1,0.9,0,1.4c-0.2,0.6-0.3,1.2-0.4,1.8c-0.3,1.6-0.6,3.2-0.4,4.9
			c0.1,0.7,0.2,1.5,0.5,2.1c0.2,0.4,0.4,0.8,0.8,0.9c0.4,0.1,0.8-0.1,1.1-0.3c0.5-0.5,0.8-1.1,1-1.8c-0.3-1.7-0.4-3.5-0.2-5.2
			c0.2-1.3,0.6-2.6,1.2-3.7c0.5-0.9,1.2-1.7,2.1-2.1c1-0.5,2.3-0.5,3.3,0.1c0.6,0.3,1.1,0.9,1.4,1.4c0.1-0.4,0-0.7,0.2-1.1
			c0.3-0.3,0.8-0.3,1.2-0.3c0.6,0.1,1.2,0.2,1.6,0.7c0.3,0.3,0.1,0.7,0.1,1.1c0,1.9-0.1,3.8-0.1,5.7c0,1.5,0,2.9,0.3,4.3
			c0.1,0.4,0.3,0.7,0.6,1c0.4,0.3,0.9,0.2,1.2-0.1c0.5-0.3,0.8-0.9,1-1.4c0.2-0.5,0.5-0.9,0.6-1.4c0-3.2,0-6.4,0-9.6
			c0-0.3,0.1-0.6,0.3-0.7c0.2-0.1,0.4,0,0.6,0c0.6,0.1,1.2,0.1,1.7,0.4c0.2,0.1,0.4,0.3,0.4,0.5c0,1.6,0,3.2,0,4.7
			c0,0.2,0,0.4,0,0.5c0.5-1.4,1-2.9,1.5-4.3c0.2-0.5,0.4-1,0.7-1.5c0.2-0.4,0.7-0.5,1.1-0.4c0.9,0.1,1.8,0.4,2.2,1.2
			c0.2,0.3,0.2,0.6,0.2,0.9c0,1.6,0.1,3.3,0.2,4.9c0,0.5,0,1,0.1,1.5c0.1,0,0.1-0.1,0.1-0.2c0.2-1.2,0.5-2.4,0.8-3.6
			c0.4-1.3,0.8-2.6,1.3-3.8c0.1-0.3,0.3-0.7,0.6-0.8c0.5-0.3,1-0.2,1.5,0c0.5,0.2,1.1,0.4,1.5,0.8c0.3,0.3,0.6,0.7,0.6,1.1
			c-0.1,2.5-0.3,5.1-0.1,7.7c0.1,0.7,0.1,1.4,0.3,2.1c0.1,0.4,0.2,0.8,0.5,1.1c0.2,0.3,0.7,0.5,1,0.3c0.3-0.1,0.5-0.4,0.7-0.7
			c0.4-0.7,0.5-1.5,0.7-2.3c0.1-0.2,0.2-0.5,0.4-0.6c0.2-0.1,0.4,0,0.5,0.1c0.2,0.2,0.1,0.4,0.1,0.7c0,1.2-0.2,2.5-1,3.5
			c-0.6,0.9-1.6,1.4-2.6,1.3c-0.9,0-1.8-0.6-2.3-1.4c-0.6-1-0.9-2.2-1.1-3.3c-0.3-2.3-0.2-4.6-0.2-6.9c-0.1,0.1-0.2,0.2-0.2,0.3
			c-0.6,1.3-1.1,2.7-1.4,4c-0.4,1.8-0.7,3.7-0.8,5.5c0,0.2-0.2,0.4-0.4,0.5c-0.5,0.2-1.1,0.3-1.6,0c-0.5-0.2-0.9-0.7-1.1-1.2
			c-0.2-0.5-0.3-1.1-0.4-1.7c-0.3-2.4-0.4-4.7-0.5-7.1c0-0.2-0.2-0.1-0.3,0c-1.2,2-1.7,4.3-2,6.6c-0.2,1.3-0.2,2.7-0.3,4
			c0,0.2-0.1,0.5-0.3,0.6c-0.4,0.2-0.9,0.2-1.3,0.2c-0.5-0.1-1.1-0.1-1.5-0.4c-0.2-0.1-0.3-0.3-0.3-0.6c0-0.4,0-0.9-0.1-1.3
			c-0.2,0.4-0.4,0.7-0.7,1.1c-0.5,0.5-1.1,1-1.8,1.2c-1,0.2-2.1-0.1-2.8-0.9c-0.6-0.6-0.9-1.4-1-2.2c-0.5,1.1-1.3,2.1-2.4,2.6
			c-0.5,0.3-1.1,0.4-1.7,0.5c-0.6,0.1-1.3,0-1.9-0.3c-0.9-0.4-1.5-1.2-1.9-2.1c-0.5,1-1.2,2-2.4,2.3c-1.1,0.3-2.3-0.1-3.1-0.9
			c-1-1-1.5-2.4-1.7-3.8c-0.1-0.7-0.1-1.3,0-2c0.1-1.5,0.3-3,0.7-4.5c0-0.1,0-0.2,0-0.2c-0.8,0-1.6,0-2.4,0c-0.4,1.4-1,2.7-1.7,3.9
			c-1.1,2.2-2.5,4.2-4.1,6c0,1.8,0.1,3.6,0,5.4c-0.1,1.4-0.3,2.9-0.9,4.2c-0.5,1-1.2,1.9-2.1,2.4c-0.7,0.4-1.5,0.6-2.3,0.7
			c-1-0.1-2.1-0.3-2.8-1c-0.6-0.5-0.9-1.1-1.1-1.8c-0.1-0.6-0.1-1.3,0.1-1.8c0.4-1.1,1.1-2.1,1.8-2.9c0.8-0.9,1.7-1.6,2.5-2.5
			c0.7-0.6,1.4-1.3,2.1-1.9c0-0.5-0.1-1-0.1-1.5c-0.3,0.4-0.6,0.9-1,1.2c-1,1-2.4,1.5-3.8,1.3c-0.9-0.2-1.7-0.8-2.3-1.6
			c-0.2-0.3-0.4-0.6-0.6-0.9c-0.5,1-1.2,2-2.3,2.4c-1.1,0.3-2.4-0.1-3.1-1c-0.5-0.6-0.8-1.3-0.9-2.1c-0.5,1-1.2,1.9-2.1,2.5
			c-0.6,0.4-1.3,0.6-2,0.7c-0.8,0.1-1.6-0.1-2.2-0.5c-1.2-0.8-1.7-2.2-2.1-3.5c-0.2,0.6-0.5,1.1-0.8,1.7c-0.3,0.5-0.6,1-1,1.4
			c-0.5,0.5-1.1,0.9-1.8,0.9c-0.8,0.1-1.6-0.1-2.2-0.7c-0.5-0.4-0.9-1-1.1-1.6c-0.5-1.1-0.7-2.2-0.8-3.4c-0.6,1.4-1.3,2.7-2.4,3.7
			c-0.8,0.8-1.9,1.5-3,1.8c-0.9,0.2-1.9,0.2-2.8,0.1c-0.8-0.1-1.6-0.2-2.3-0.6c-0.3-0.2-0.7-0.5-0.8-0.9c-0.1-0.4,0.2-0.8,0.4-1.2
			c0.2-0.3,0.5-0.7,0.9-0.8c0.4-0.1,0.7,0.2,0.9,0.4c0.4,0.4,0.9,0.7,1.5,0.8c0.6,0.1,1.2,0,1.6-0.5c0.3-0.5,0.4-1,0.4-1.6
			c0-1-0.7-1.9-1.3-2.6c-0.6-0.6-1.3-1.2-2-1.8c-0.9,1.6-2,3.2-2.9,4.8c-0.6,1-1.3,2-2.1,2.8c-0.6,0.6-1.4,1-2.2,1.2
			c-0.6,0.1-1.2-0.2-1.5-0.6c-0.5-0.6-0.7-1.3-0.8-2c-0.2-1.3-0.1-2.6-0.1-3.9c0-1.6,0.1-3.3,0.2-4.9c0-0.4,0.1-0.7,0-1.1
			c-0.1,0-0.2,0-0.3,0.1c-1.6,1.8-2.6,4-3.3,6.2c-0.6,1.9-1.1,4-1.4,6c-0.3,0.2-0.6,0.3-0.9,0.2c-0.4-0.1-0.8,0-1.2-0.1
			c-0.3-0.1-0.6-0.4-0.7-0.7c-0.3-0.6-0.3-1.4-0.3-2c0-3.9,0.1-7.8,0.1-11.7c0-0.2,0-0.4,0.2-0.5c0.4-0.1,0.8,0,1.2,0.1
			c0.5,0.1,0.9,0.2,1.3,0.6c0.2,0.2,0.1,0.4,0.1,0.6c0,2.2,0,4.3,0,6.5c0.7-1.9,1.4-3.9,2.5-5.6c0.2-0.4,0.5-0.7,0.8-1
			c0.5-0.6,1.2-1.1,2.1-1.2c0.6,0,1.2,0.3,1.8,0.5c0.5,0.3,1,0.6,1.2,1.2c0.1,0.3,0.1,0.7,0.1,1c-0.1,1.9-0.1,3.7-0.2,5.6
			c0,0.8-0.1,1.5,0,2.3c0,0.4,0.1,0.7,0.2,1.1c0.1,0.2,0.2,0.4,0.4,0.4c0.2,0,0.4-0.1,0.5-0.3c0.3-0.3,0.6-0.7,0.9-1.1
			c0.8-1.1,1.4-2.2,2.1-3.4c0.4-0.7,0.8-1.4,1.2-2.1c-0.1-0.2-0.3-0.4-0.4-0.6c-0.4-0.7-0.5-1.6-0.3-2.4c0.2-0.8,0.7-1.4,1.3-1.9
			c0.4-0.3,1-0.5,1.5-0.6c0.5-0.1,1.1-0.1,1.5,0.2c0.3,0.2,0.5,0.6,0.5,0.9c0,0.7-0.2,1.3-0.5,1.9c-0.3,0.6-0.7,1.1-1.1,1.6
			c1.3,1,2.7,1.9,3.9,3.1c0.6,0.6,1.1,1.4,1.2,2.3c0.1,0.5,0,0.9-0.1,1.4c1.3-1.1,2.2-2.6,2.5-4.3c0-2.5,0-5.1,0.1-7.6
			c-1.2,0-2.3,0-3.5-0.1c-0.2-0.1-0.3-0.4-0.3-0.7c0-0.6,0.2-1.2,0.6-1.6c0.1-0.1,0.2-0.1,0.3-0.1c1,0,2.1,0,3.1,0
			c0-1.2,0.1-2.4,0.1-3.5C56.8,18.7,56.8,18.3,57,18L57,18z M69.7,27.8c-0.7,0.1-1.2,0.7-1.5,1.3c-0.4,0.8-0.6,1.7-0.8,2.6
			c-0.2,1.2-0.2,2.3-0.1,3.5c0.1,0.9,0.2,1.8,0.6,2.6c0.2,0.4,0.6,0.8,1.1,1c0.3,0.1,0.7,0.1,1-0.1c0.6-0.3,1-0.9,1.3-1.5
			c0.5-1.1,0.8-2.3,0.9-3.6c0.1-1.3,0.1-2.6-0.2-3.8c-0.2-0.6-0.4-1.2-0.9-1.6C70.7,27.9,70.2,27.7,69.7,27.8L69.7,27.8z M84.1,27.9
			c-0.8,0.2-1.4,0.9-1.8,1.7c-0.5,1.1-0.7,2.4-0.8,3.6c-0.1,1.4-0.1,2.8,0.4,4.2c0.2,0.6,0.6,1.3,1.2,1.6c0.4,0.2,0.9,0.1,1.2-0.1
			c0.3-0.2,0.6-0.5,0.8-0.8c0.5-0.7,0.8-1.5,1-2.3c0.3-1.2,0.4-2.5,0.4-3.8c0-0.9-0.1-1.7-0.4-2.6c-0.2-0.5-0.4-1-0.9-1.3
			C85,27.8,84.5,27.7,84.1,27.9L84.1,27.9z M109.2,28c-0.7,0.1-1.3,0.7-1.6,1.3c-0.6,1.1-0.8,2.3-0.9,3.6c-0.1,1.4-0.1,2.8,0.2,4.1
			c0.2,0.7,0.4,1.3,1,1.8c0.3,0.3,0.8,0.4,1.3,0.3c0.6-0.2,1-0.7,1.3-1.2c0.7-1.2,1-2.6,1.1-4c0.1-1.3,0.1-2.6-0.2-3.8
			c-0.2-0.6-0.4-1.2-0.9-1.6C110.2,28,109.7,27.9,109.2,28L109.2,28z M85.8,43.2c-1.3,1.2-2.4,2.6-3.1,4.3c-0.3,0.6-0.4,1.2-0.2,1.9
			c0.1,0.5,0.5,0.9,1,1c0.6,0.2,1.3,0.2,1.8-0.2c0.5-0.3,0.8-0.9,1-1.4c0.4-1.1,0.4-2.2,0.5-3.3c0-1.1,0-2.2,0.1-3.3
			C86.5,42.5,86.2,42.9,85.8,43.2L85.8,43.2z"/>
	</g>
</g>
</svg>
