<?xml version="1.0" encoding="utf-8"?>
<!-- Generator: Adobe Illustrator 19.0.0, SVG Export Plug-In . SVG Version: 6.00 Build 0)  -->
<svg version="1.1" id="Capa_1" xmlns="http://www.w3.org/2000/svg" xmlns:xlink="http://www.w3.org/1999/xlink" x="0px" y="0px"
	 viewBox="0 0 41.3 38.8" style="enable-background:new 0 0 41.3 38.8;" xml:space="preserve">
<style type="text/css">
	.st0{fill:#4E4E50;}
</style>
<path id="XMLID_128_" class="st0" d="M38.5,5.8c-0.2-0.3-0.5-0.5-0.8-0.5H3.6c-0.4,0-0.7,0.2-0.8,0.6c-0.1,0.4,0,0.7,0.3,1l12,10.3
	l0,18.2c0,0.4,0.2,0.7,0.6,0.9c0.1,0,0.2,0,0.3,0c0.3,0,0.5-0.1,0.7-0.4L38.5,6.7C38.7,6.5,38.7,6.1,38.5,5.8z M6,7.1h27.8L16,15.7
	L6,7.1z M16.8,17.3l18-8.7l-18,24L16.8,17.3z"/>
</svg>
