<?xml version="1.0" encoding="utf-8"?>
<!-- Generator: Adobe Illustrator 19.0.0, SVG Export Plug-In . SVG Version: 6.00 Build 0)  -->
<svg version="1.1" id="Capa_1" xmlns="http://www.w3.org/2000/svg" xmlns:xlink="http://www.w3.org/1999/xlink" x="0px" y="0px"
	 viewBox="0 0 41.3 38.8" style="enable-background:new 0 0 41.3 38.8;" xml:space="preserve">
<style type="text/css">
	.st0{fill:#4E4E50;}
</style>
<g id="XMLID_29_">
	<path id="XMLID_35_" class="st0" d="M32.2,8.8c-1.4-0.9-3-1.3-4.5-1.3c-2.7,0-5.3,1.3-7,3.6c-1.7-2.3-4.3-3.6-7-3.6
		c-1.5,0-3.1,0.4-4.5,1.3c-4.3,2.7-5.8,8.6-3.3,13.3c2,3.8,10.6,10.4,13.7,12.7c0.3,0.2,0.7,0.4,1.1,0.4c0.4,0,0.8-0.1,1.1-0.4
		c3.1-2.3,11.6-8.9,13.7-12.7C37.9,17.5,36.5,11.5,32.2,8.8z M34.2,21.4c-1.5,2.8-7.8,8.2-13.3,12.2c-0.1,0.1-0.2,0.1-0.3,0.1
		c-0.1,0-0.2,0-0.3-0.1c-5.4-4-11.7-9.4-13.3-12.2c-2.1-4-0.9-9.1,2.8-11.4C11.1,9.4,12.4,9,13.6,9c2.3,0,4.4,1.1,5.9,3l1.2,1.6
		l1.2-1.6c1.4-1.9,3.6-3,5.9-3c1.3,0,2.6,0.4,3.7,1.1C35.1,12.3,36.3,17.4,34.2,21.4z"/>
</g>
</svg>
