<?xml version="1.0" encoding="iso-8859-1"?>
<!-- Generator: Adobe Illustrator 19.0.0, SVG Export Plug-In . SVG Version: 6.00 Build 0)  -->
<svg version="1.1" id="Capa_1" xmlns="http://www.w3.org/2000/svg" xmlns:xlink="http://www.w3.org/1999/xlink" x="0px" y="0px"
	 viewBox="0 0 293.6 293.6" style="enable-background:new 0 0 293.6 293.6;" xml:space="preserve">
<g>
	<g>
		<path d="M276.8,114.8h-32c-1.6-4.8-3.6-9.6-6-14.4L261.2,78c6.4-6.4,6.4-16.8,0-23.2L238.8,32c-6.4-6.4-16.8-6.4-23.2,0
			l-22.4,22.4c-4.8-2.4-9.2-4.4-14.4-6v-32c0-8.8-7.2-16.4-16.4-16.4h-32c-8.8,0-16,7.2-16,16v32c-4.8,1.6-9.6,3.6-14.4,6L77.6,31.6
			c-6.4-6.4-16.8-6.4-23.2,0L32,54.8c-6.4,6.4-6.4,16.8,0,23.2l22.8,22.4c-2.4,4.8-4.4,9.2-6,14.4h-32c-8.8,0-16.4,7.2-16.4,16.4v32
			c0,8.8,7.2,16,16,16h32c1.6,4.8,3.6,9.6,6,14.4L32,216c-6.4,6.4-6.4,16.8,0,23.2L54.8,262c6.4,6.4,16.8,6.4,23.2,0l22.4-22.8
			c4.8,2.4,9.2,4.4,14.4,6v32c0,8.8,7.2,16.4,16.4,16.4h32c8.8,0,16-7.2,16-16v-32c4.8-1.6,9.6-3.6,14.4-6L216,262
			c6.4,6.4,16.8,6.4,23.2,0l22.8-22.8c6.4-6.4,6.4-16.8,0-23.2l-23.2-22.8c2.4-4.8,4.4-9.2,6-14.4h32c8.8,0,16.4-7.2,16.4-16.4v-32
			C293.2,122,286,114.8,276.8,114.8z M146.8,204c-31.6,0-57.2-25.6-57.2-57.2c0-31.6,25.6-57.2,57.2-57.2
			c31.6,0,57.6,25.6,57.6,57.2C204.4,178.4,178.4,204,146.8,204z"/>
	</g>
</g>
<g>
</g>
<g>
</g>
<g>
</g>
<g>
</g>
<g>
</g>
<g>
</g>
<g>
</g>
<g>
</g>
<g>
</g>
<g>
</g>
<g>
</g>
<g>
</g>
<g>
</g>
<g>
</g>
<g>
</g>
</svg>
